<?xml version="1.0" encoding="UTF-8"?>
<svg viewBox="0 0 120 120" xmlns="http://www.w3.org/2000/svg">
    <path d="M 59.999233,1.4815 C 26.866214,1.4815 0,28.341802 0,61.480835 c 0,26.508839 17.191847,49.000385 41.031893,56.934155 2.998624,0.55541 4.098531,-1.3014 4.098531,-2.88616 0,-1.42978 -0.05548,-6.15693 -0.08141,-11.17053 -16.692168,3.62954 -20.213218,-7.079292 -20.213218,-7.079292 -2.729378,-6.934235 -6.663009,-8.780734 -6.663009,-8.780734 -5.443846,-3.723953 0.410411,-3.647346 0.410411,-3.647346 6.025143,0.423284 9.198415,6.184218 9.198415,6.184218 5.351438,9.171774 14.035637,6.520917 17.459522,4.987804 0.539516,-3.876971 2.094433,-6.525565 3.810357,-8.023899 C 35.724557,86.482841 21.71386,81.337812 21.71386,58.347244 c 0,-6.549706 2.34454,-11.904106 6.182748,-16.105959 -0.622971,-1.511255 -2.676816,-7.612833 0.582192,-15.877457 0,0 5.038331,-1.612167 16.503278,6.150701 4.786088,-1.329425 9.919643,-1.996309 15.018724,-2.020161 5.099082,0.02268 10.235343,0.690736 15.030357,2.020161 11.452052,-7.762868 16.482917,-6.150701 16.482917,-6.150701 3.265909,8.264624 1.212431,14.366202 0.589455,15.877457 3.84717,4.201853 6.173987,9.556253 6.173987,16.105959 0,23.046195 -14.036576,28.118389 -27.397278,29.603788 2.152112,1.861992 4.07088,5.51449 4.07088,11.112348 0,8.02818 -0.06845,14.48919 -0.06845,16.46545 0,1.59766 1.079017,3.46706 4.120362,2.87887 C 102.83116,110.46497 120,87.981733 120,61.480835 120,28.341802 93.137764,1.4815 60.000775,1.4815 Z M 21.707952,86.610566 c -0.254891,0.0019 -0.469364,0.107036 -0.550167,0.298356 -0.141086,0.299074 0.102236,0.705664 0.538508,0.902393 0.427226,0.204774 0.896927,0.115767 1.029017,-0.183345 0.150123,-0.299074 -0.09887,-0.709554 -0.534168,-0.905295 -0.163086,-0.07688 -0.330217,-0.113235 -0.48319,-0.112101 z m 2.44224,2.063819 c -0.151521,-7.56e-4 -0.289814,0.04449 -0.395879,0.139691 -0.290267,0.26812 -0.217436,0.829024 0.176013,1.247324 0.378531,0.419316 0.939318,0.543269 1.22547,0.277984 0.299036,-0.269254 0.221669,-0.824073 -0.171817,-1.247327 C 24.732489,88.824202 24.42007,88.67584 24.15,88.674347 Z m 2.351997,3.068084 c -0.113802,0.0057 -0.221371,0.04086 -0.314382,0.104769 -0.3761,0.25629 -0.374929,0.896141 -0.0083,1.430702 0.371603,0.533548 0.972805,0.772978 1.340435,0.51668 0.375084,-0.261354 0.375383,-0.901296 0.0083,-1.443806 -0.282406,-0.396808 -0.686287,-0.62674 -1.027529,-0.608379 z m 2.903597,3.410113 c -0.210104,0.0057 -0.397909,0.07631 -0.52831,0.218268 -0.328857,0.362683 -0.182514,1.048229 0.342047,1.531113 0.512678,0.495696 1.21389,0.594073 1.54277,0.231496 0.349757,-0.358677 0.191811,-1.051159 -0.328933,-1.534042 -0.314834,-0.29915 -0.699583,-0.453786 -1.027559,-0.446831 z m 4.311039,2.608154 c -0.472573,0.0026 -0.865693,0.216037 -0.969313,0.563263 -0.137159,0.474939 0.308145,1.024263 0.986775,1.229866 0.679608,0.199672 1.352938,-0.01134 1.499115,-0.481754 0.14109,-0.477929 -0.304819,-1.02511 -0.982439,-1.229866 -0.181947,-0.05662 -0.363213,-0.08281 -0.534138,-0.08141 z m 9.854805,0.20674 c -0.09547,0.0015 -0.194344,0.01134 -0.29401,0.02797 -0.69648,0.128164 -1.199868,0.624435 -1.1134,1.119236 0.08844,0.477838 0.732756,0.777286 1.42924,0.649137 0.708423,-0.132094 1.204596,-0.628607 1.119254,-1.110504 -0.07775,-0.421739 -0.557427,-0.695048 -1.141084,-0.685501 z m -4.759306,0.587992 c -0.700392,0.02532 -1.247293,0.426414 -1.247293,0.918391 0.0083,0.486853 0.588162,0.887241 1.305513,0.870341 0.713404,-0.008 1.290417,-0.419227 1.273519,-0.914021 0,-0.490828 -0.584867,-0.888793 -1.298253,-0.874711 -0.01134,1.97e-4 -0.02268,-3.78e-4 -0.03364,0 z" />
</svg>