<?xml version="1.0" encoding="UTF-8"?> 
<svg viewBox="0 0 120 120" xmlns="http://www.w3.org/2000/svg">
    <path d="M 12.320312 14.988281 C 5.9603894 14.986549 0 20.01273 0 27.285156 L 0 38.193359 L 0 96.830078 C 0 101.35734 3.6680041 105.01172 8.1816406 105.01172 L 27.273438 105.01172 L 27.273438 58.648438 L 60 83.193359 L 92.726562 58.648438 L 92.726562 105.01172 L 111.81836 105.01172 C 116.34563 105.01172 120 101.3437 120 96.830078 L 120 38.193359 L 120 27.285156 C 120 17.166998 108.44965 11.398629 100.36328 17.466797 L 92.726562 23.193359 L 60 47.738281 L 27.273438 23.193359 L 19.636719 17.466797 C 17.358594 15.760125 14.808978 14.988959 12.320312 14.988281 z " />
</svg>