<?xml version="1.0" encoding="UTF-8"?>
<svg viewBox="0 0 117 117" xmlns="http://www.w3.org/2000/svg">
    <path
        d="m107.879,88.5407c-0.139,-0.1449 -0.271,-0.3088 -0.41,-0.46c-19.3957,9.8617 -49.2517,2.363 -56.6558,-0.2899c-0.0946,0.1009 -0.3466,0.4663 -0.4411,0.5861c3.9698,2.6213 19.1247,11.1975 28.6083,13.4911c6.1942,1.481 15.2682,2.666 21.6326,-2.8229c2.464,-2.4765 5.841,-6.5093 7.915,-9.8806c-0.152,-0.1575 -0.517,-0.4852 -0.649,-0.6238z"
        id="svg_1" />
    <path
        d="m64.2933,112.152c1.0334,0.378 2.0417,0.712 3.094,1.021c5.5011,1.525 12.5839,-0.731 13.5228,-1.078c2.029,-0.718 6.4463,-2.961 8.1036,-4.001l-0.4222,-0.983c-0.6554,-0.063 -2.8231,-0.334 -2.8231,-0.334c-2.7158,-0.441 -5.3561,-1.071 -7.9649,-1.827c-4.6441,-1.374 -9.1496,-3.138 -13.5228,-5.243c-2.1551,-1.0587 -18.2929,-10.5675 -22.2187,-12.9746c-10.1893,-6.2447 -17.9274,-7.0071 -24.1091,-7.7318c-0.0315,0.2269 -0.1134,0.46 -0.1638,0.5671c11.1471,5.2365 17.1649,13.6047 25.445,20.0636c6.5786,5.1227 13.5291,9.7357 21.0592,12.5207z"
        id="svg_2" />
    <path
        d="m5.81005,81.9812c0,0 -0.32137,0.189 -0.4663,0.3024c4.5307,13.693 26.13815,35.9874 55.10565,34.1154c0.0819,-0.327 0.3024,-1.121 0.3339,-1.279c-1.4178,-0.491 -1.9408,-0.762 -3.22,-1.43c-13.6047,-6.157 -24.7077,-18.98 -30.2718,-23.6556c-7.7003,-6.4716 -14.4869,-10.0319 -21.48145,-8.0532z"
        id="svg_3" />
    <path
        d="m115.315,73.9594c0.927,-2.3567 2.023,-10.0003 2.023,-15.2935c0,-32.4017 -26.2515,-58.6659 -58.6595,-58.6659c-32.3954,0 -58.6785,26.2705 -58.6785,58.6659c0,6.9693 1.22247,13.6551 3.44686,19.8494c15.26824,-7.1269 35.41384,1.2351 45.33844,5.3625c1.4494,0.5986 2.7096,1.1279 3.7053,1.4997l-2.7916,-6.5156l-2.1487,-5.0222c0,-0.5609 0.0315,-1.128 0.0882,-1.6888c0.3214,-1.9598 1.3611,-3.68 2.8482,-4.871c1.9723,7.6184 4.4488,12.0798 5.7028,13.9954c0.4978,0.7625 0.8002,1.1216 0.8002,1.1216l0.9705,0.1954c0,0 -0.2584,-0.4915 -0.6554,-1.5124c-0.8948,-2.3063 -2.489,-7.3222 -3.2956,-15.4068c0.0063,0 0.0063,0 0.0126,0c0.649,-0.1072 1.3296,-0.1387 2.0542,-0.0946c5.1735,0.3025 12.4894,4.3417 23.0379,10.9077c6.6984,4.1653 14.7831,4.9403 18.148,-0.1701l4.2531,0l-2.7345,8.5195c-0.3843,1.0964 -1.0082,2.0731 -1.7959,2.8671c8.4564,-2.1488 15.1234,-6.4652 18.3304,-13.7433zm-71.6275,-39.5916c0,0 -4.4551,0.6427 -5.8918,1.0019c-1.7518,0.4285 -2.7222,1.506 -2.949,3.9636c-0.3844,4.058 -1.0902,10.9959 -1.0902,10.9959l-1.2161,0c0,0 -0.6869,-6.9379 -1.065,-10.9959c-0.2457,-2.4576 -1.2287,-3.5351 -2.9742,-3.9636c-1.4493,-0.3592 -5.8918,-1.0019 -5.8918,-1.0019l0,-1.1406c0,0 4.6441,-0.4978 6.1438,-1.0019c1.1217,-0.3781 2.2811,-0.8066 2.8357,-2.8419c0.4474,-1.5628 0.9893,-6.4338 0.9893,-6.4338l0.5797,0l0.5608,0c0,0 0.5356,4.871 0.983,6.4338c0.5798,2.0353 1.7329,2.4638 2.8483,2.8419c1.4934,0.5041 6.1375,1.0019 6.1375,1.0019l0,1.1406zm29.0053,-8.3179c2.3504,0 4.5559,0.6113 6.4652,1.6888l-0.9956,4.3858c-2.9238,-2.4576 -6.6228,-4.0266 -10.6682,-4.2913l-0.1639,-0.6427c1.6384,-0.731 3.4532,-1.1406 5.3625,-1.1406zm21.3869,50.2473l-0.4789,0.2142c-3.6485,-3.995 -8.2107,-7.1394 -13.3589,-9.1055c-1.3926,-3.6611 -2.1488,-7.6246 -2.1488,-11.7773c0,-3.7367 0.6175,-7.3285 1.7581,-10.6745c-3.4658,-1.506 -7.2277,-2.4701 -11.1661,-2.7852l-0.1386,0.4348c3.2515,0.5104 6.314,1.5816 9.0929,3.1129c-1.7455,4.1022 -2.7159,8.6203 -2.7159,13.3589c0,4.1022 0.7247,8.0406 2.0542,11.6828c0.0631,0.1764 0.1324,0.3592 0.2017,0.5356c-8.3619,-6.0872 -16.1505,-9.4584 -21.8343,-9.4584c-2.1677,0 -4.0329,0.4915 -5.5011,1.506l0.5167,3.1759c-0.46,-0.7813 -0.8696,-1.5942 -1.2162,-2.4386c-0.9641,-2.3315 -1.4997,-4.8899 -1.4997,-7.568c0,-4.0076 1.191,-7.7381 3.2389,-10.8573c1.8715,-1.0208 3.8691,-1.8337 5.9674,-2.4071l0.0189,-0.063l0.0189,-0.0126c0.6491,-1.8589 1.443,-3.6422 2.3693,-5.3499c5.1105,-2.8041 10.9708,-4.3983 17.2091,-4.3983c3.157,0 6.2258,0.4095 9.1433,1.1783c3.239,0.8507 6.2951,2.1425 9.1055,3.8124c-2.2622,4.0833 -3.8375,8.595 -4.5685,13.3841c-0.3087,2.0038 -0.4663,4.0518 -0.4663,6.1438c-0.0063,6.6165 1.5817,12.8549 4.3984,18.356z"
        id="svg_4" />
</svg>