<?xml version="1.0" encoding="UTF-8"?>
<svg viewBox="12 .19 120 120" xmlns="http://www.w3.org/2000/svg">
    <path d="M72 .19a60 60 0 0 0-60 60 60 60 0 0 0 60 60 60 60 0 0 0 60-60 60 60 0 0 0-60-60Zm25.06 23.77a6.234 6.234 0 0 1 6.229 6.23 6.233 6.233 0 0 1-6.229 6.229 6.227 6.227 0 0 1-6.23-5.942L77.8 27.684l-4.01 18.759c9.165.358 17.399 3.15 23.413 7.446a8.795 8.795 0 0 1 6.086-2.434 8.724 8.724 0 0 1 8.735 8.736 8.818 8.818 0 0 1-5.155 8.018c.143.86.215 1.79.215 2.649 0 13.532-15.68 24.416-35.012 24.416S37.06 84.32 37.06 70.858c0-.93.072-1.79.215-2.649-3.007-1.36-5.156-4.367-5.156-7.947 0-4.797 3.867-8.736 8.736-8.736 2.363 0 4.51.931 6.086 2.435 6.086-4.368 14.462-7.16 23.77-7.447l4.439-20.906c.072-.43.287-.788.645-1.003.286-.215.715-.286 1.145-.214l14.535 3.078a6.227 6.227 0 0 1 5.585-3.509zM58.253 60.19a6.233 6.233 0 0 0-6.229 6.23c0 3.436 2.792 6.3 6.229 6.228a6.234 6.234 0 0 0 6.23-6.229 6.234 6.234 0 0 0-6.23-6.228zm27.494.072a6.233 6.233 0 0 0-6.228 6.229 6.234 6.234 0 0 0 6.228 6.23c3.437 0 6.229-2.865 6.229-6.23a6.233 6.233 0 0 0-6.229-6.229zm-27.35 19.922c-.412 0-.825.162-1.147.484a1.599 1.599 0 0 0 0 2.29c4.225 4.225 12.388 4.583 14.822 4.583 2.363 0 10.525-.287 14.82-4.583a1.741 1.741 0 0 0 0-2.29 1.599 1.599 0 0 0-2.29 0c-2.65 2.72-8.449 3.651-12.53 3.651-4.081 0-9.81-.93-12.53-3.651a1.615 1.615 0 0 0-1.145-.484z" />
</svg>